<svg viewBox="0 0 398.15 229.1" xmlns="http://www.w3.org/2000/svg"><path d="m96.53 159.57c-17.63 5.69-38 14.55-41.31 32.78-2.13 11.88 4.78 24.31 15.16 30.45 5.07 3 11.3 5.1 14 10.36 4.12 8.17-3.29 17.54-11.11 22.3s-17.37 8.52-20.93 17c-2.35 5.56-1.43 12 .9 17.6 8.52 20.42 33.37 29.36 55.47 28.27s43.06-9.7 64.73-14.13c74.44-15.22 152.49 19.33 226.8 3.49 11.56-2.46 23.21-6.32 32.14-14.07 10.07-8.73 15.78-21.91 16.65-35.21.82-12.69-3.68-27-15-32.69-6.64-3.34-14.57-3.2-21.77-1.39-4.6 1.16-9.12 3-13.87 3s-10-2.35-11.34-6.89c-1.45-4.78 1.85-9.7 5.63-13 7.68-6.63 18-9.94 24.94-17.3a29.47 29.47 0 0 0 -11.53-48c-23.45-8.32-49 14.37-73 7.72-1.78-.49-3.65-1.26-4.59-2.85a6.64 6.64 0 0 1 -.18-5.25c2.94-9.66 14.35-15.8 14.85-25.88.27-5.48-3-10.61-7.05-14.27-28.06-25.18-68.72 4.77-97.34 14.23-47.12 15.52-95.08 28.5-142.25 43.73z" fill="#494089" transform="translate(-50.93 -91.74)"/><path d="m210.35 239.54a0 0 0 0 1 0 0l6.75-4a0 0 0 0 0 0 0s-.74-2-1.24-3.06-1-2.06-1.58-3a60.12 60.12 0 0 0 -3.89-5.3l-6.75 4-8.88-15s-2.39 1.1-3.57 1.67-2.34 1.19-3.47 1.86-2.07 1.29-3 2-2.9 2.16-2.9 2.16a0 0 0 0 0 0 0l8.88 15a0 0 0 0 1 0 0l-13.43 7.94-3.94-50.81a40.21 40.21 0 0 0 -7.39.25 67 67 0 0 0 -7 2.27l5.18 69.51 1.61.81 31.58-18.67 7.77 13.15s2.39-1.09 3.57-1.67 2.34-1.19 3.47-1.86 2.07-1.29 3-2 2.9-2.16 2.9-2.16a0 0 0 0 0 0 0z" fill="#fff" transform="translate(-50.93 -91.74)"/><path d="m338.92 233.71q-1.59-1.17-3.27-2.2t-3.16-1.75c-1.05-.52-3.26-1.56-3.26-1.56l-9.14 14.88-13.29-8.17a0 0 0 0 1 0 0l43.06-27.12a0 0 0 0 0 0 0 40.24 40.24 0 0 0 -3.68-6.42 66.83 66.83 0 0 0 -5.26-5.09l-59 37v1.8l31.26 19.21a0 0 0 0 1 0 0l-8 13a0 0 0 0 0 0 0s2.08 1.6 3.14 2.38 2.15 1.51 3.27 2.2 2.11 1.23 3.16 1.75 3.26 1.56 3.26 1.56l8-13 6.69 4.11s1.42-1.59 2.13-2.53 1.34-1.87 1.91-2.8a60.14 60.14 0 0 0 2.87-5.92 0 0 0 0 0 0 0l-6.68-4.04a0 0 0 0 1 0 0l9.14-14.88a0 0 0 0 0 0 0s-2.07-1.63-3.15-2.41z" fill="#fff" transform="translate(-50.93 -91.74)"/><circle cx="199.07" cy="126.6" fill="#a37dff" r="34.47"/><path d="m215.81 214c10.23 1.45 27.42-5.85 32.93-6.92 11.2-2.17 22.71.41 34.13.79a34.28 34.28 0 0 0 -3.17-7.08c-4.2.17-8.62-.55-12.86-.68-8-.23-16 1.88-24.07 1.39-3.71-.22-12.06-3.48-19.66-4.75a34.3 34.3 0 0 0 -7.3 17.25z" fill="#cbf" fill-rule="evenodd" transform="translate(-50.93 -91.74)"/><path d="m250 183.87a34.46 34.46 0 0 0 -10.07 1.5c4.32 2.47 13 3.35 15 3.62 3.61.48 7.53.66 10.63-1.26l.13-.09a34.31 34.31 0 0 0 -15.69-3.77z" fill="#cbf" fill-rule="evenodd" transform="translate(-50.93 -91.74)"/><path d="m284.46 218.82a66.74 66.74 0 0 0 -30.45-.53c-5.44 1.19-10.7 3.05-16.11 4.39a84.26 84.26 0 0 1 -20.8 2.43h-.9a34.39 34.39 0 0 0 9.61 17.79 118.73 118.73 0 0 0 23.59-11.43c6.48-4.08 13-8.95 20.6-9.64 4.74-.43 9.39.8 14.08 1.77a34.73 34.73 0 0 0 .38-4.78z" fill="#cbf" fill-rule="evenodd" transform="translate(-50.93 -91.74)"/><path d="m282.63 229.44c-4.67-.69-13 3.42-15.08 5.15-1.83 1.55-3.37 3.44-5.34 4.79-2.5 1.72-5.53 2.47-8.47 3.23q-8.91 2.3-17.68 5.1a3.13 3.13 0 0 0 -1.91 1.23 34.46 34.46 0 0 0 27.24 1.92c3.58-5.11 5.71-11.72 11.38-14.12 1-.41 4.32-.89 7.36-1.67a34.27 34.27 0 0 0 2.5-5.63z" fill="#cbf" fill-rule="evenodd" transform="translate(-50.93 -91.74)"/><path d="m352.93 320.84a98.76 98.76 0 0 0 -194.12 0z" fill="#fff" fill-rule="evenodd" transform="translate(-50.93 -91.74)"/><ellipse cx="262.81" cy="295.42" fill="#90c9ea" rx="6.32" ry="11.25" transform="matrix(.13069923 -.99142207 .99142207 .13069923 -115.35 425.63)"/><circle cx="132.92" cy="67.85" fill="#abc3ff" r="12.75"/><g transform="translate(-50.93 -91.74)"><path d="m183.84 146.84a12.68 12.68 0 0 0 -6.24 1.63 2.16 2.16 0 0 0 .31.42c1.29 1.3 4.36 1.36 6.07 1.44a20.9 20.9 0 0 0 7.42-1 12.68 12.68 0 0 0 -7.56-2.49z" fill="#79a1f2" fill-rule="evenodd"/><path d="m193.59 153.66a6.91 6.91 0 0 0 1.23-.52 12.78 12.78 0 0 0 -1.1-1.6l-3.81 1.71a19.73 19.73 0 0 1 -3 1.16 18.1 18.1 0 0 1 -4.74.42 96 96 0 0 1 -9.8-.7 12.62 12.62 0 0 0 -1 8.17 11.53 11.53 0 0 0 1.88-1.09 25.25 25.25 0 0 1 5.29-2.31z" fill="#79a1f2" fill-rule="evenodd"/><path d="m195.56 154.56c-1 .88-1.72 2.05-2.8 2.9a15 15 0 0 1 -3.73 2.14c-.95.37-1.93.65-2.84 1.11a1.31 1.31 0 0 0 -.77.77c-.15.65.62 1.12 1.27 1.27a14.66 14.66 0 0 0 4 .19l4.71-.2c.28 0 .56 0 .85-.07a12.6 12.6 0 0 0 -.64-8.1z" fill="#79a1f2" fill-rule="evenodd"/><path d="m184.18 159.24a29.57 29.57 0 0 0 -6.58 2.15 33.66 33.66 0 0 1 -4.24 1.86 7.48 7.48 0 0 1 -1.66.21 12.76 12.76 0 0 0 4 6l.38-.48c1.91-2.53 3.2-5.73 6-7.3a8.88 8.88 0 0 0 1.48-.89 1.62 1.62 0 0 0 .62-1.55z" fill="#79a1f2" fill-rule="evenodd"/><path d="m195.36 165a2.53 2.53 0 0 0 -.42 0l-8.17.45a7.08 7.08 0 0 0 -7.37 4.16c-.23.38-.66.9-1 1.45a12.67 12.67 0 0 0 5.16 1.24c.33-.42.64-.87 1-1.3a11.23 11.23 0 0 1 7.67-4.34c.8-.08 1.6-.09 2.4-.17a12.71 12.71 0 0 0 .73-1.49z" fill="#79a1f2" fill-rule="evenodd"/><path d="m195.54 164.65a12.65 12.65 0 0 0 .76-2.37 84.94 84.94 0 0 1 -23 4.44 12.81 12.81 0 0 0 1.6 1.92 88.86 88.86 0 0 0 20.67-4z" fill="#618de5" fill-rule="evenodd"/><path d="m171.34 167.75c-4.57 0-8.3-.73-8.72-2.92s2.3-4.22 8-6.39a1 1 0 0 1 .71 1.87c-5.8 2.19-6.83 3.84-6.78 4.13.21 1.09 7.41 2.36 20.42-.16a70.43 70.43 0 0 0 14.16-4.13c4.2-1.84 4.89-3.11 4.84-3.35s-1.7-1.48-8.24-1.29a1 1 0 0 1 -.06-2c6.39-.19 9.85.79 10.26 2.91.35 1.82-1.61 3.64-6 5.56a72.49 72.49 0 0 1 -14.58 4.26 80.57 80.57 0 0 1 -14.01 1.51z" fill="#fff"/></g><circle cx="381.15" cy="183.34" fill="#7b91ff" r="10.27" transform="matrix(.47608473 -.87939942 .87939942 .47608473 -12.45 339.52)"/><path d="m386 174.31a10.21 10.21 0 0 0 -5-1.23 1.73 1.73 0 0 0 .06.42c.41 1.41 2.57 2.63 3.75 3.35a16.83 16.83 0 0 0 5.63 2.15 10.21 10.21 0 0 0 -4.44-4.69z" fill="#80c3ff" fill-rule="evenodd" transform="translate(-50.93 -91.74)"/><path d="m390.33 182.88a5.57 5.57 0 0 0 1.07.1 10.29 10.29 0 0 0 -.17-1.56l-3.36-.25a15.88 15.88 0 0 1 -2.59-.34 14.58 14.58 0 0 1 -3.52-1.52 77.33 77.33 0 0 1 -6.67-4.25 10.17 10.17 0 0 0 -3.81 5.42 9.29 9.29 0 0 0 1.75-.05 20.35 20.35 0 0 1 4.63.39z" fill="#80c3ff" fill-rule="evenodd" transform="translate(-50.93 -91.74)"/><path d="m391.38 184.27c-1 .25-2 .8-3.09 1a12.06 12.06 0 0 1 -3.46.08c-.81-.1-1.62-.28-2.43-.3a1.06 1.06 0 0 0 -.85.25c-.35.41 0 1 .41 1.39a11.8 11.8 0 0 0 2.73 1.65l3.41 1.66.63.28a10.15 10.15 0 0 0 2.65-6z" fill="#80c3ff" fill-rule="evenodd" transform="translate(-50.93 -91.74)"/><path d="m381.52 183.22a23.81 23.81 0 0 0 -5.49-1 27.1 27.1 0 0 1 -3.71-.31 6 6 0 0 1 -1.26-.49 10.28 10.28 0 0 0 .58 5.79l.45-.19c2.32-1.06 4.46-2.83 7-2.89a7.16 7.16 0 0 0 1.39-.06 1.31 1.31 0 0 0 1.04-.85z" fill="#80c3ff" fill-rule="evenodd" transform="translate(-50.93 -91.74)"/><path d="m387.22 191.61a2 2 0 0 0 -.3-.17l-6-2.81a5.71 5.71 0 0 0 -6.81.12c-.31.18-.81.39-1.3.63a10.21 10.21 0 0 0 3.18 2.86c.4-.17.78-.37 1.18-.55a9 9 0 0 1 7.1-.13c.6.25 1.17.55 1.76.8a10.25 10.25 0 0 0 1.19-.75z" fill="#80c3ff" fill-rule="evenodd" transform="translate(-50.93 -91.74)"/><path d="m160.05 285.84h20.13a3.94 3.94 0 0 1 3.94 3.94v4.06a0 0 0 0 1 0 0h-28a0 0 0 0 1 0 0v-4.06a3.94 3.94 0 0 1 3.93-3.94z" fill="#fff" transform="matrix(.46638664 -.88458098 .88458098 .46638664 -216.53 213.43)"/><path d="m337.05 288.34h13.13a3.94 3.94 0 0 1 3.94 3.94v4.06a0 0 0 0 1 0 0h-21a0 0 0 0 1 0 0v-4.06a3.94 3.94 0 0 1 3.93-3.94z" fill="#fff" transform="matrix(.37088163 .92868015 -.92868015 .37088163 436.74 -226.93)"/><path d="m199.05 249.84h20.13a3.94 3.94 0 0 1 3.94 3.94v4.06a0 0 0 0 1 0 0h-28a0 0 0 0 1 0 0v-4.06a3.94 3.94 0 0 1 3.94-3.94z" fill="#fff" transform="matrix(.81228717 -.58325771 .58325771 .81228717 -159.73 77.89)"/><path d="m307.05 260.34h20.13a3.94 3.94 0 0 1 3.94 3.94v4.06a0 0 0 0 1 0 0h-28a0 0 0 0 1 0 0v-4.06a3.94 3.94 0 0 1 3.94-3.94z" fill="#fff" transform="matrix(.7976892 .60306877 -.60306877 .7976892 172.64 -229.5)"/><ellipse cx="209.87" cy="272.84" fill="#90c9ea" rx="15.75" ry="7" transform="matrix(.89163955 -.45274598 .45274598 .89163955 -151.7 32.82)"/><path d="m207.7 269.6c7-3.56 14-4.21 16.53-1.77a3.59 3.59 0 0 0 -.31-2.12c-1.75-3.45-9.46-3-17.21.89s-12.63 9.92-10.87 13.37a3.28 3.28 0 0 0 .69.88c.47-3.45 4.83-8.04 11.17-11.25z" fill="#494089" fill-rule="evenodd" transform="translate(-50.93 -91.74)"/><ellipse cx="309.81" cy="271.97" fill="#90c9ea" rx="4.7" ry="10.57" transform="matrix(.53021526 -.84786307 .84786307 .53021526 -135.97 298.74)"/><path d="m310.92 269.6c4.47 2.8 7.26 6.56 6.74 8.89a2.41 2.41 0 0 0 1.11-.91c1.38-2.2-1.52-6.49-6.47-9.59s-10.08-3.82-11.46-1.62a2.2 2.2 0 0 0 -.27.7c2.14-.95 6.3 0 10.35 2.53z" fill="#494089" fill-rule="evenodd" transform="translate(-50.93 -91.74)"/><path d="m263.64 289.16c-6.16-.81-11.52 1.34-12 4.8a3.62 3.62 0 0 0 0 .75c1.34-2.79 6.17-4.41 11.63-3.69 5.71.75 10.09 3.79 10.34 7a3.68 3.68 0 0 0 .34-1.11c.47-3.48-4.16-6.91-10.31-7.75z" fill="#494089" fill-rule="evenodd" transform="translate(-50.93 -91.74)"/><circle cx="59.69" cy="112.02" fill="#90c9ea" r="3.25"/><circle cx="248.56" cy="21.56" fill="#90c9ea" r="1.46"/><circle cx="269.23" cy="48.6" fill="#90c9ea" r="1.46"/><circle cx="25.69" cy="96.06" fill="#90c9ea" r="1.46"/><g fill="#fff"><circle cx="232.32" cy="74.23" r="1.88"/><circle cx="311.19" cy="160.48" r="1.88"/><circle cx="366.57" cy="163.6" r="1.88"/><circle cx="71.19" cy="190.98" r="1.88"/><circle cx="179.57" cy="55.1" r="1.88"/><g fill-rule="evenodd"><path d="m158.68 100.72 2.51 1.42-2.56 1.34-1.43 2.5-1.33-2.55-2.51-1.43 2.56-1.34 1.43-2.5z"/><path d="m276.56 74.38 1.63.93-1.67.88-.93 1.63-.87-1.67-1.63-.93 1.66-.87.94-1.64z"/><path d="m83.72 152.8 1.64.93-1.67.87-.94 1.64-.87-1.67-1.63-.94 1.67-.87.93-1.63z"/><path d="m84.66 86.16 1.63.94-1.67.87-.93 1.63-.87-1.66-1.64-.94 1.67-.87.93-1.63z"/><path d="m34.69 185.6 1.63.93-1.66.88-.94 1.63-.87-1.67-1.63-.93 1.66-.87.94-1.64z"/><path d="m331.53 139.5 1.63.93-1.67.87-.93 1.64-.87-1.67-1.63-.94 1.66-.87.94-1.63z"/><path d="m351.69 205.27 1.63.93-1.67.87-.93 1.64-.87-1.67-1.63-.93 1.66-.88.94-1.63z"/></g></g></svg>