<svg width="520" height="520" viewBox="0 0 520 520" fill="none" xmlns="http://www.w3.org/2000/svg">
<g filter="url(#filter0_d_4_25)">
<circle cx="260" cy="256" r="256" fill="url(#paint0_linear_4_25)"/>
<path d="M209.877 139H228.249H364.04C371.495 139.266 377.619 142.054 382.412 147.364C387.471 152.675 390 159.048 390 166.483C388.669 182.415 380.015 191.045 364.04 192.373H223.456C213.338 192.904 204.951 196.754 198.295 203.924C191.639 211.093 186.713 219.325 183.518 228.619C180.589 237.647 179.124 246.941 179.124 256.5C179.124 266.059 180.589 275.486 183.518 284.78C186.713 293.808 191.639 301.907 198.295 309.076C204.951 316.246 213.338 320.096 223.456 320.627H364.04C371.495 320.893 377.619 323.681 382.412 328.992C387.471 334.302 390 340.675 390 348.11C389.734 355.28 387.071 361.387 382.012 366.432C377.22 371.212 371.229 373.734 364.04 374H217.465H209.877C191.239 372.938 175.796 365.901 163.548 352.89C151.567 339.613 142.913 324.61 137.588 307.881C132.529 291.153 130 274.025 130 256.5C130 238.975 132.663 221.847 137.988 205.119C143.313 188.39 151.966 173.52 163.948 160.508C175.929 147.232 191.239 140.062 209.877 139ZM389.201 254.907C389.201 262.342 386.539 268.582 381.214 273.627C376.155 278.938 369.898 281.593 362.442 281.593H241.828C234.373 281.593 227.983 279.071 222.657 274.025C217.599 268.715 215.069 262.342 215.069 254.907C215.069 247.472 217.599 241.099 222.657 235.788C227.983 230.743 234.373 228.22 241.828 228.22H362.442C369.898 228.22 376.155 230.876 381.214 236.186C386.539 241.232 389.201 247.472 389.201 254.907Z" fill="white"/>
<path d="M364.058 138.5C371.642 138.77 377.896 141.613 382.783 147.029H382.782C387.925 152.433 390.5 158.926 390.5 166.483V166.504L390.498 166.524C389.826 174.572 387.298 180.837 382.864 185.259C378.431 189.68 372.149 192.201 364.081 192.871L364.061 192.873H223.467C213.481 193.401 205.222 197.197 198.661 204.264C192.052 211.382 187.163 219.553 183.99 228.781C181.08 237.757 179.624 246.996 179.624 256.5C179.624 266.002 181.079 275.372 183.989 284.613L184.291 285.45C187.468 294.077 192.257 301.838 198.661 308.736C205.222 315.803 213.481 319.599 223.467 320.127H364.049L364.058 320.128C371.642 320.398 377.896 323.24 382.783 328.656H382.782C387.925 334.06 390.5 340.553 390.5 348.11V348.129C390.229 355.424 387.514 361.651 382.365 366.786C377.477 371.661 371.365 374.23 364.059 374.5H209.863L209.849 374.499C191.089 373.43 175.524 366.341 163.185 353.232L163.177 353.225C151.149 339.896 142.459 324.831 137.112 308.033L137.109 308.026C132.036 291.25 129.5 274.074 129.5 256.5C129.5 238.923 132.171 221.745 137.512 204.967C142.859 188.168 151.55 173.234 163.58 160.17C175.654 146.793 191.087 139.57 209.849 138.501L209.863 138.5H364.058ZM362.442 227.721C370.023 227.721 376.406 230.424 381.558 235.823L382.059 236.309C387.151 241.364 389.701 247.574 389.701 254.907C389.701 262.477 386.984 268.849 381.558 273.99C376.406 279.39 370.023 282.093 362.442 282.093H241.828C234.247 282.093 227.733 279.523 222.313 274.389L222.305 274.38L222.296 274.37C217.147 268.965 214.569 262.469 214.569 254.907C214.569 247.346 217.147 240.848 222.296 235.443L222.305 235.434L222.313 235.425C227.733 230.29 234.247 227.721 241.828 227.721H362.442Z" stroke="#CACACA" stroke-opacity="0.3"/>
</g>
<defs>
<filter id="filter0_d_4_25" x="0" y="0" width="520" height="520" filterUnits="userSpaceOnUse" color-interpolation-filters="sRGB">
<feFlood flood-opacity="0" result="BackgroundImageFix"/>
<feColorMatrix in="SourceAlpha" type="matrix" values="0 0 0 0 0 0 0 0 0 0 0 0 0 0 0 0 0 0 127 0" result="hardAlpha"/>
<feOffset dy="4"/>
<feGaussianBlur stdDeviation="2"/>
<feComposite in2="hardAlpha" operator="out"/>
<feColorMatrix type="matrix" values="0 0 0 0 0 0 0 0 0 0 0 0 0 0 0 0 0 0 0.25 0"/>
<feBlend mode="normal" in2="BackgroundImageFix" result="effect1_dropShadow_4_25"/>
<feBlend mode="normal" in="SourceGraphic" in2="effect1_dropShadow_4_25" result="shape"/>
</filter>
<linearGradient id="paint0_linear_4_25" x1="48" y1="72" x2="450" y2="396" gradientUnits="userSpaceOnUse">
<stop offset="1" stop-color="#3758F9"/>
</linearGradient>
</defs>
</svg>
