<svg width="621" height="350" viewBox="0 0 621 350" fill="none" xmlns="http://www.w3.org/2000/svg">
<path fill-rule="evenodd" clip-rule="evenodd" d="M619.942 62.22H0V61.5223H619.942V62.22Z" fill="url(#paint0_linear_2826_32848)" fill-opacity="0.5"/>
<path fill-rule="evenodd" clip-rule="evenodd" d="M337.151 349.667V0L337.849 3.1886e-08V349.667H337.151Z" fill="url(#paint1_linear_2826_32848)" fill-opacity="0.5"/>
<path fill-rule="evenodd" clip-rule="evenodd" d="M619.942 134.081H0V133.383H619.942V134.081Z" fill="url(#paint2_linear_2826_32848)" fill-opacity="0.5"/>
<path fill-rule="evenodd" clip-rule="evenodd" d="M266.453 349.667V0L267.15 3.1886e-08V349.667H266.453Z" fill="url(#paint3_linear_2826_32848)" fill-opacity="0.5"/>
<path fill-rule="evenodd" clip-rule="evenodd" d="M619.942 349.667V0L620.64 3.1886e-08V349.667H619.942Z" fill="url(#paint4_linear_2826_32848)" fill-opacity="0.5"/>
<path fill-rule="evenodd" clip-rule="evenodd" d="M619.942 205.943H0V205.246H619.942V205.943Z" fill="url(#paint5_linear_2826_32848)" fill-opacity="0.5"/>
<path fill-rule="evenodd" clip-rule="evenodd" d="M195.755 349.667L195.755 0L196.453 3.1886e-08L196.453 349.667H195.755Z" fill="url(#paint6_linear_2826_32848)" fill-opacity="0.5"/>
<path fill-rule="evenodd" clip-rule="evenodd" d="M549.244 349.667V0L549.941 3.1886e-08V349.667H549.244Z" fill="url(#paint7_linear_2826_32848)" fill-opacity="0.5"/>
<path fill-rule="evenodd" clip-rule="evenodd" d="M619.942 277.804H0V277.106H619.942V277.804Z" fill="url(#paint8_linear_2826_32848)" fill-opacity="0.5"/>
<path fill-rule="evenodd" clip-rule="evenodd" d="M125.057 349.667L125.057 0L125.755 3.1886e-08L125.755 349.667H125.057Z" fill="url(#paint9_linear_2826_32848)" fill-opacity="0.5"/>
<path fill-rule="evenodd" clip-rule="evenodd" d="M478.546 349.667V0L479.244 3.1886e-08V349.667H478.546Z" fill="url(#paint10_linear_2826_32848)" fill-opacity="0.5"/>
<path fill-rule="evenodd" clip-rule="evenodd" d="M54.3599 349.667L54.3599 0L55.0576 3.1886e-08L55.0576 349.667H54.3599Z" fill="url(#paint11_linear_2826_32848)" fill-opacity="0.5"/>
<path fill-rule="evenodd" clip-rule="evenodd" d="M407.848 349.667V0L408.546 3.1886e-08V349.667H407.848Z" fill="url(#paint12_linear_2826_32848)" fill-opacity="0.5"/>
<rect x="125.755" y="62.2202" width="69.9993" height="71.1642" fill="#CBCBCB" fill-opacity="0.12"/>
<rect x="196.453" y="134.081" width="70.0027" height="71.1646" fill="#CBCBCB" fill-opacity="0.08"/>
<defs>
<linearGradient id="paint0_linear_2826_32848" x1="237.399" y1="7.03675e-06" x2="351.874" y2="325.307" gradientUnits="userSpaceOnUse">
<stop stop-color="#CBCBCB"/>
<stop offset="1" stop-color="#CBCBCB" stop-opacity="0"/>
</linearGradient>
<linearGradient id="paint1_linear_2826_32848" x1="237.399" y1="7.03675e-06" x2="351.874" y2="325.307" gradientUnits="userSpaceOnUse">
<stop stop-color="#CBCBCB"/>
<stop offset="1" stop-color="#CBCBCB" stop-opacity="0"/>
</linearGradient>
<linearGradient id="paint2_linear_2826_32848" x1="237.399" y1="7.03675e-06" x2="351.874" y2="325.307" gradientUnits="userSpaceOnUse">
<stop stop-color="#CBCBCB"/>
<stop offset="1" stop-color="#CBCBCB" stop-opacity="0"/>
</linearGradient>
<linearGradient id="paint3_linear_2826_32848" x1="237.399" y1="7.03675e-06" x2="351.874" y2="325.307" gradientUnits="userSpaceOnUse">
<stop stop-color="#CBCBCB"/>
<stop offset="1" stop-color="#CBCBCB" stop-opacity="0"/>
</linearGradient>
<linearGradient id="paint4_linear_2826_32848" x1="237.399" y1="7.03675e-06" x2="351.874" y2="325.307" gradientUnits="userSpaceOnUse">
<stop stop-color="#CBCBCB"/>
<stop offset="1" stop-color="#CBCBCB" stop-opacity="0"/>
</linearGradient>
<linearGradient id="paint5_linear_2826_32848" x1="237.399" y1="7.03675e-06" x2="351.874" y2="325.307" gradientUnits="userSpaceOnUse">
<stop stop-color="#CBCBCB"/>
<stop offset="1" stop-color="#CBCBCB" stop-opacity="0"/>
</linearGradient>
<linearGradient id="paint6_linear_2826_32848" x1="237.399" y1="7.03675e-06" x2="351.874" y2="325.307" gradientUnits="userSpaceOnUse">
<stop stop-color="#CBCBCB"/>
<stop offset="1" stop-color="#CBCBCB" stop-opacity="0"/>
</linearGradient>
<linearGradient id="paint7_linear_2826_32848" x1="237.399" y1="7.03675e-06" x2="351.874" y2="325.307" gradientUnits="userSpaceOnUse">
<stop stop-color="#CBCBCB"/>
<stop offset="1" stop-color="#CBCBCB" stop-opacity="0"/>
</linearGradient>
<linearGradient id="paint8_linear_2826_32848" x1="237.399" y1="7.03675e-06" x2="351.874" y2="325.307" gradientUnits="userSpaceOnUse">
<stop stop-color="#CBCBCB"/>
<stop offset="1" stop-color="#CBCBCB" stop-opacity="0"/>
</linearGradient>
<linearGradient id="paint9_linear_2826_32848" x1="237.399" y1="7.03675e-06" x2="351.874" y2="325.307" gradientUnits="userSpaceOnUse">
<stop stop-color="#CBCBCB"/>
<stop offset="1" stop-color="#CBCBCB" stop-opacity="0"/>
</linearGradient>
<linearGradient id="paint10_linear_2826_32848" x1="237.399" y1="7.03675e-06" x2="351.874" y2="325.307" gradientUnits="userSpaceOnUse">
<stop stop-color="#CBCBCB"/>
<stop offset="1" stop-color="#CBCBCB" stop-opacity="0"/>
</linearGradient>
<linearGradient id="paint11_linear_2826_32848" x1="237.399" y1="7.03675e-06" x2="351.874" y2="325.307" gradientUnits="userSpaceOnUse">
<stop stop-color="#CBCBCB"/>
<stop offset="1" stop-color="#CBCBCB" stop-opacity="0"/>
</linearGradient>
<linearGradient id="paint12_linear_2826_32848" x1="237.399" y1="7.03675e-06" x2="351.874" y2="325.307" gradientUnits="userSpaceOnUse">
<stop stop-color="#CBCBCB"/>
<stop offset="1" stop-color="#CBCBCB" stop-opacity="0"/>
</linearGradient>
</defs>
</svg>
