<svg width="91" height="100" viewBox="0 0 91 100" fill="none" xmlns="http://www.w3.org/2000/svg">
<g clip-path="url(#clip0_2_184)">
<path fill-rule="evenodd" clip-rule="evenodd" d="M90.431 13.7323L13.041 72.2974C3.53768 55.1578 0.245942 34.4817 0 22.0808V14.4906C0 13.3865 1.20415 12.7426 1.80635 12.5584C14.5434 8.74043 40.4068 0.993638 41.963 0.552022C43.5192 0.110404 44.8344 0 45.2981 0H45.3401C45.8033 0 47.1185 0.110404 48.675 0.552022C50.2311 0.993638 76.0946 8.74043 88.8316 12.5584C89.2797 12.6954 90.0605 13.0868 90.431 13.7323Z" fill="url(#paint0_linear_2_184)"/>
<path fill-rule="evenodd" clip-rule="evenodd" d="M13.0406 72.3931L90.4306 13.8282C90.5584 14.051 90.6377 14.3035 90.6377 14.5865V22.1767C90.2209 43.1996 81.0498 88.0052 47.7018 99.0457C47.239 99.2298 46.1457 99.5979 45.4788 99.5979H45.1585C44.4916 99.5979 43.3983 99.2298 42.9353 99.0457C29.2584 94.5177 19.648 84.3104 13.0406 72.3931Z" fill="url(#paint1_linear_2_184)"/>
<path d="M48.4207 0.553125C46.8637 0.110625 45.5477 0 45.084 0L44.9449 99.7004H45.2231C45.8905 99.7004 46.9842 99.3319 47.4474 99.1474C80.8119 88.0849 89.9873 43.1897 90.4042 22.125V14.5195C90.4042 13.4133 89.1995 12.7679 88.5968 12.5836C75.8537 8.7578 49.9777 0.995625 48.4207 0.553125Z" fill="url(#paint2_linear_2_184)" fill-opacity="0.21"/>
<path d="M45.4589 69.6936C56.8988 69.6936 66.1726 60.5309 66.1726 49.228C66.1726 37.9252 56.8988 28.7624 45.4589 28.7624C34.019 28.7624 24.7451 37.9252 24.7451 49.228C24.7451 60.5309 34.019 69.6936 45.4589 69.6936Z" fill="#E3E2FA"/>
<path fill-rule="evenodd" clip-rule="evenodd" d="M41.7055 53.653C40.13 53.7914 36.1448 53.1 34.1985 51.4405C32.1087 49.6586 31.0011 47.2922 31.0011 43.8349C31.0011 39.5461 34.8937 34.9851 40.3154 35.1233C45.4649 35.2546 48.9381 38.142 49.6297 42.7287C49.9906 45.1224 49.6227 46.2728 49.3367 47.1664C49.2925 47.3056 49.2501 47.4383 49.2128 47.5685C49.0737 48.0297 48.8791 49.0345 49.2128 49.3664C49.546 49.6983 54.6342 54.575 57.1367 56.9715C57.3681 57.2483 57.8318 57.9396 57.8318 58.4927V61.1202C57.8318 61.5349 57.7204 61.6733 57.2758 61.6733H51.7149C51.3907 61.6271 50.7416 61.3138 50.7416 60.4289C50.7416 59.4853 50.6406 59.3465 50.4383 59.0685C50.4036 59.0207 50.3655 58.9685 50.3247 58.9077C50.0465 58.4927 49.4906 58.4927 48.9346 58.4927C48.3786 58.4927 47.9613 58.3543 47.6836 58.078C47.4054 57.8013 47.4054 57.3866 47.5445 56.8336C47.6836 56.2802 47.5445 55.7271 47.2663 55.5888C47.2221 55.5668 47.1709 55.5379 47.1133 55.5052C46.8082 55.3327 46.3216 55.0577 45.737 55.1741C45.042 55.3125 44.0687 55.1741 43.5127 54.6211C42.9568 54.0677 42.2616 53.6211 41.7055 53.653ZM37.9519 43.144C39.1036 43.144 40.0372 42.2152 40.0372 41.0696C40.0372 39.9241 39.1036 38.9954 37.9519 38.9954C36.8003 38.9954 35.8667 39.9241 35.8667 41.0696C35.8667 42.2152 36.8003 43.144 37.9519 43.144Z" fill="url(#paint3_linear_2_184)"/>
</g>
<defs>
<linearGradient id="paint0_linear_2_184" x1="8.48012" y1="41.6226" x2="42.0741" y2="6.32071" gradientUnits="userSpaceOnUse">
<stop stop-color="#45FFC8"/>
<stop offset="1" stop-color="#1DBBF1"/>
</linearGradient>
<linearGradient id="paint1_linear_2_184" x1="31.9738" y1="61.95" x2="73.8716" y2="82.453" gradientUnits="userSpaceOnUse">
<stop stop-color="#D14AE8"/>
<stop offset="0.552228" stop-color="#B628E3"/>
<stop offset="1" stop-color="#8315FD"/>
</linearGradient>
<linearGradient id="paint2_linear_2_184" x1="67.5628" y1="9.4031" x2="67.5628" y2="78.6819" gradientUnits="userSpaceOnUse">
<stop stop-color="#20ABF5"/>
<stop offset="0.398093" stop-color="#2A8CC3"/>
<stop offset="1" stop-color="#A104DC"/>
</linearGradient>
<linearGradient id="paint3_linear_2_184" x1="39.0642" y1="42.8671" x2="55.9334" y2="59.9656" gradientUnits="userSpaceOnUse">
<stop stop-color="#FE5B01"/>
<stop offset="1" stop-color="#FFB200"/>
</linearGradient>
<clipPath id="clip0_2_184">
<rect width="91" height="100" fill="white"/>
</clipPath>
</defs>
</svg>
