<svg width="100" height="100" viewBox="0 0 100 100" fill="none" xmlns="http://www.w3.org/2000/svg">
<path d="M58.3333 50C58.3333 40.7952 50.8712 33.3333 41.6667 33.3333C32.4619 33.3333 25 40.7952 25 50C25 68.4096 39.9238 83.3333 58.3333 83.3333C76.7429 83.3333 91.6667 68.4096 91.6667 50C91.6667 35.1917 85.2292 21.8869 75 12.7315" stroke="white" stroke-width="2" stroke-linecap="round" stroke-linejoin="round"/>
<path d="M41.6666 50C41.6666 59.2046 49.1287 66.6667 58.3333 66.6667C67.5379 66.6667 75 59.2046 75 50C75 31.5905 60.0762 16.6667 41.6666 16.6667C23.2571 16.6667 8.33331 31.5905 8.33331 50C8.33331 64.9337 14.8803 78.3383 25.2605 87.5" stroke="#F56565" stroke-width="2" stroke-linecap="round" stroke-linejoin="round"/>
</svg>
