<svg width="435" height="100" viewBox="0 0 435 100" fill="none" xmlns="http://www.w3.org/2000/svg">
<g clip-path="url(#clip0_2_179)">
<path d="M158.578 79.1115V43.3648C159.104 43.1548 160.26 42.9184 161.993 42.6558C164.072 42.3726 166.17 42.2409 168.269 42.2619C170.528 42.2619 172.419 42.5245 173.916 43.076C175.377 43.5908 176.643 44.5441 177.541 45.8053C178.46 47.0658 179.116 48.6931 179.51 50.6872C179.904 52.683 180.088 55.1234 180.088 58.0103V79.1124H185.209V56.3559C185.232 53.7887 184.967 51.227 184.421 48.7185C183.963 46.5738 183.069 44.5458 181.795 42.76C180.51 41.0714 178.796 39.7573 176.831 38.954C174.756 38.062 172.157 37.6156 169.084 37.6156C165.354 37.6156 162.203 37.8782 159.629 38.4034C157.055 38.9286 155.006 39.4013 153.483 39.8206V79.1115H158.578ZM215.596 79.9781C218.006 80.0172 220.409 79.7256 222.739 79.1115C224.762 78.5338 226.127 78.0348 226.889 77.6155L225.943 73.2064C224.793 73.7331 223.609 74.1803 222.398 74.5448C220.769 75.07 218.564 75.3326 215.779 75.3326C210.737 75.3326 207.06 73.9933 204.749 71.3165C202.438 68.6388 201.203 64.8074 201.046 59.8206H229.647C229.699 59.4529 229.725 59.059 229.752 58.6388C229.778 58.2187 229.804 57.7994 229.804 57.3792C229.804 50.6075 228.315 45.5944 225.34 42.3407C222.362 39.0853 218.389 37.458 213.416 37.458C211.162 37.4597 208.931 37.9062 206.85 38.771C204.694 39.6656 202.758 41.0177 201.177 42.7337C199.421 44.6768 198.057 46.9405 197.159 49.4004C196.134 52.0518 195.635 55.1751 195.635 58.7176C195.608 61.6071 195.979 64.4862 196.739 67.2742C197.41 69.7478 198.621 72.0423 200.284 73.9934C201.982 75.9331 204.115 77.4442 206.509 78.4034C208.978 79.4529 212.024 79.9781 215.596 79.9781ZM224.499 55.4893H201.177C201.283 53.7425 201.637 52.0195 202.228 50.372C202.795 48.7938 203.65 47.3341 204.749 46.0671C205.808 44.852 207.092 43.8538 208.531 43.1276C210.066 42.3733 211.758 41.9952 213.469 42.0247C216.935 42.0247 219.614 43.2064 221.505 45.5681C223.396 47.9307 224.394 51.2378 224.499 55.4893ZM241.649 79.1115C242.28 77.9561 243.041 76.6185 243.933 75.1488C244.827 73.6782 245.799 72.1035 246.876 70.4499C247.966 68.7763 249.087 67.1225 250.237 65.4893C251.419 63.8095 252.548 62.2085 253.703 60.6863C254.807 62.2094 255.963 63.8095 257.144 65.4893C258.297 67.1267 259.426 68.7804 260.532 70.4499C261.609 72.0781 262.608 73.6257 263.474 75.1488C264.34 76.671 265.129 77.9832 265.758 79.1115H271.274C270.239 77.1108 269.144 75.1415 267.991 73.2064C266.809 71.2106 265.601 69.2691 264.34 67.4317C263.079 65.5944 261.819 63.757 260.558 62.0247C259.388 60.415 258.206 58.814 257.012 57.2216L270.013 38.4034H264.419L253.703 53.9933L243.146 38.4034H237.158L250.393 57.5368C247.909 60.9181 245.493 64.3484 243.145 67.8256C240.689 71.4656 238.427 75.2329 236.369 79.1115H241.648H241.649ZM292.915 79.9781C294.946 80.0009 296.967 79.6994 298.903 79.0853C300.741 78.4813 302.028 77.9298 302.764 77.4842L301.502 73.2327C300.518 73.7733 299.49 74.2298 298.43 74.5973C297.117 75.07 295.383 75.3589 293.23 75.3589C292.063 75.3696 290.899 75.2373 289.763 74.965C288.734 74.7152 287.802 74.167 287.084 73.3894C286.348 72.6024 285.797 71.5004 285.403 70.0306C285.009 68.5601 284.825 66.7236 284.825 64.3873V42.7337H301.056V38.4034H284.825V25.4902L279.704 26.4356V63.9146C279.672 66.2922 279.883 68.6668 280.335 71.0014C280.756 72.9963 281.464 74.6499 282.488 75.9883C283.545 77.3509 284.965 78.3879 286.586 78.9802C288.292 79.6367 290.393 79.9781 292.915 79.9781ZM321.253 58.7964V53.8358H303.446V58.7964H321.253ZM332.494 30.0569C332.989 30.0643 333.481 29.9729 333.941 29.7881C334.401 29.6032 334.82 29.3286 335.172 28.9802C335.908 28.2721 336.276 27.3276 336.276 26.1196C336.276 24.9125 335.908 23.968 335.172 23.2327C334.818 22.8879 334.399 22.6174 333.939 22.437C333.479 22.2566 332.988 22.17 332.494 22.1823C331.497 22.1695 330.536 22.5465 329.814 23.2327C329.078 23.9417 328.711 24.9125 328.711 26.1196C328.711 27.3276 329.079 28.2721 329.815 28.9811C330.164 29.3342 330.582 29.6119 331.042 29.797C331.503 29.9821 331.997 30.0705 332.494 30.0569ZM335.093 79.1115V38.4034H329.972V79.1115H335.093ZM353.504 79.1115V43.3648C354.029 43.1548 355.158 42.9184 356.944 42.6558C359.015 42.3725 361.105 42.2408 363.195 42.2619C365.454 42.2619 367.345 42.5245 368.816 43.076C370.276 43.591 371.541 44.5442 372.439 45.8053C373.359 47.0658 374.016 48.6931 374.41 50.6872C374.803 52.683 374.987 55.1234 374.987 58.0103V79.1124H380.109V56.3559C380.131 53.7887 379.867 51.227 379.32 48.7185C378.876 46.5646 377.971 44.5321 376.668 42.76C375.383 41.0714 373.669 39.7573 371.704 38.954C369.629 38.062 367.03 37.6156 363.957 37.6156C360.227 37.6156 357.076 37.8782 354.501 38.4034C351.928 38.9286 349.879 39.4013 348.356 39.8206V79.1115H353.504ZM405.872 79.9781C407.903 80.001 409.925 79.6995 411.861 79.0853C413.699 78.4813 414.986 77.9298 415.721 77.4842L414.461 73.2327C413.477 73.7733 412.449 74.2298 411.388 74.5973C410.074 75.07 408.342 75.3589 406.188 75.3589C405.02 75.3696 403.856 75.2373 402.721 74.965C401.692 74.7151 400.76 74.1669 400.042 73.3894C399.307 72.6024 398.755 71.5004 398.361 70.0306C397.967 68.5601 397.783 66.7236 397.783 64.3873V42.7337H414.014V38.4034H397.783V25.4902L392.662 26.4356V63.9146C392.629 66.2922 392.841 68.6668 393.293 71.0014C393.713 72.9963 394.423 74.6499 395.447 75.9883C396.503 77.3508 397.923 78.3878 399.543 78.9802C401.25 79.6367 403.352 79.9781 405.872 79.9781ZM433.501 79.8206L434.211 75.5681C433.29 75.4379 432.378 75.2538 431.479 75.0166C430.789 74.8525 430.154 74.5085 429.64 74.0196C429.13 73.5193 428.759 72.8952 428.564 72.2085C428.306 71.224 428.19 70.2075 428.222 69.1903V18.0095L423.101 18.9548V69.3479C423.101 71.2903 423.312 72.9175 423.785 74.2034C424.174 75.3983 424.85 76.4797 425.754 77.3529C426.676 78.1984 427.782 78.8187 428.984 79.1649C430.455 79.5816 431.974 79.8022 433.501 79.8206Z" fill="white"/>
<path d="M84.2533 86.2202C83.1468 87.273 81.9898 88.2715 80.7865 89.2122C60.2509 105.385 30.7057 102.975 13.0668 83.6887C-4.57308 64.4004 -4.32345 34.7768 13.637 15.7878C31.5983 -3.20116 61.1802 -5.11468 81.4416 11.4014C101.702 27.9167 105.809 56.8251 90.8051 78.2248" stroke="white" stroke-width="5.4"/>
<path d="M83.7024 89.1072C85.008 89.1072 86.0665 88.0494 86.0665 86.7446C86.0665 85.4398 85.008 84.382 83.7024 84.382C82.3967 84.382 81.3383 85.4398 81.3383 86.7446C81.3383 88.0494 82.3967 89.1072 83.7024 89.1072Z" fill="black"/>
<path d="M7.74921 25.197C21.9809 23.469 36.0567 22.6156 49.9774 22.6383C63.8982 22.6602 77.2671 23.5574 90.0843 25.3283" stroke="white" stroke-width="5.4" stroke-linecap="square"/>
<path d="M50.2952 100C63.8572 100 74.8512 77.6142 74.8512 50C74.8512 22.3858 63.8572 0 50.2952 0C36.7334 0 25.7393 22.3858 25.7393 50C25.7393 77.6142 36.7334 100 50.2952 100Z" stroke="white" stroke-width="5.4"/>
<path d="M10.2438 77.5586C23.3245 79.3093 36.5279 80.1847 49.8557 80.1847C63.1826 80.1847 76.5927 79.3093 90.0842 77.5586M0.88385 51.7061H99.4074" stroke="white" stroke-width="5.4" stroke-linecap="square"/>
</g>
<defs>
<clipPath id="clip0_2_179">
<rect width="434.211" height="100" fill="white"/>
</clipPath>
</defs>
</svg>
