<svg width="499" height="100" viewBox="0 0 499 100" fill="none" xmlns="http://www.w3.org/2000/svg">
<g clip-path="url(#clip0_1_42)">
<path d="M331.72 0.0418701H418.637V16.076H384.158V100.429H366.917V16.076H331.72V0.0418701Z" fill="black"/>
<path d="M188.774 0.0418701V16.076H119.104V41.8699H175.133V57.9039H119.104V84.3951H188.774V100.429H101.864V16.076H101.857V0.0418701H188.774Z" fill="black"/>
<path d="M232.174 0.0837402H209.613L290.423 100.471H313.05L272.64 50.3119L312.986 0.160329L290.423 0.195177L261.344 36.2908L232.174 0.0837402Z" fill="black"/>
<path d="M255.326 71.7909L244.027 57.7505L209.548 100.548H232.174L255.326 71.7909Z" fill="black"/>
<path fill-rule="evenodd" clip-rule="evenodd" d="M102.469 100.429L21.5496 0H0V100.387H17.2397V21.4577L80.811 100.429H102.469Z" fill="black"/>
<path d="M422.512 99.8159C421.25 99.8159 420.176 99.3788 419.276 98.5045C418.377 97.6302 417.933 96.5717 417.944 95.3178C417.933 94.0983 418.377 93.0514 419.276 92.1771C420.176 91.3028 421.25 90.8655 422.512 90.8655C423.727 90.8655 424.789 91.3028 425.689 92.1771C426.601 93.0514 427.055 94.0983 427.068 95.3178C427.055 96.1461 426.845 96.9053 426.425 97.584C425.993 98.2744 425.444 98.8152 424.754 99.2063C424.076 99.609 423.329 99.8159 422.512 99.8159Z" fill="black"/>
<path d="M451.937 57.5257H459.576V86.9425C459.565 89.6461 458.98 91.9585 457.836 93.9028C456.68 95.847 455.079 97.3309 453.024 98.3778C450.979 99.4132 448.584 99.9425 445.863 99.9425C443.374 99.9425 441.144 99.4938 439.158 98.6195C437.172 97.7452 435.595 96.4337 434.439 94.708C433.27 92.9823 432.698 90.831 432.698 88.2541H440.35C440.361 89.3815 440.618 90.3592 441.108 91.1761C441.598 91.9929 442.276 92.614 443.141 93.0513C444.016 93.4885 445.022 93.7071 446.154 93.7071C447.381 93.7071 448.432 93.4539 449.285 92.9362C450.137 92.43 450.792 91.6708 451.248 90.6584C451.691 89.6576 451.925 88.4151 451.937 86.9425V57.5257Z" fill="black"/>
<path d="M491.01 69.0301C490.824 67.247 490.005 65.8549 488.581 64.8656C487.143 63.8647 485.286 63.37 483.008 63.37C481.408 63.37 480.03 63.6117 478.886 64.0833C477.741 64.5665 476.853 65.2106 476.245 66.0275C475.638 66.8443 475.334 67.7762 475.31 68.8232C475.31 69.6975 475.52 70.4567 475.929 71.0895C476.339 71.7337 476.887 72.2744 477.6 72.7117C478.3 73.1603 479.083 73.5284 479.937 73.8275C480.8 74.1266 481.665 74.3798 482.529 74.5868L486.512 75.5647C488.113 75.9328 489.667 76.4276 491.15 77.0603C492.633 77.6815 493.977 78.4753 495.156 79.4301C496.337 80.3851 497.271 81.5355 497.96 82.8815C498.649 84.2275 499 85.8036 499 87.6213C499 90.0717 498.369 92.223 497.095 94.0867C495.822 95.9389 493.988 97.3885 491.582 98.4354C489.187 99.4709 486.291 100 482.88 100C479.586 100 476.712 99.4939 474.294 98.4815C471.865 97.4806 469.972 96.008 468.605 94.0752C467.239 92.1425 466.503 89.7841 466.398 87.0115H473.968C474.073 88.461 474.54 89.6691 475.334 90.647C476.14 91.6133 477.191 92.3266 478.476 92.8098C479.773 93.2814 481.221 93.523 482.822 93.523C484.492 93.523 485.964 93.2699 487.237 92.7752C488.498 92.2805 489.491 91.5904 490.204 90.693C490.929 89.8071 491.291 88.7603 491.302 87.5638C491.291 86.4709 490.963 85.5619 490.332 84.8486C489.69 84.1355 488.802 83.5372 487.669 83.0541C486.525 82.5709 485.193 82.1337 483.674 81.7541L478.839 80.5346C475.346 79.6487 472.577 78.3028 470.556 76.4966C468.524 74.6904 467.519 72.2975 467.519 69.2948C467.519 66.8329 468.196 64.6701 469.564 62.8179C470.918 60.9657 472.776 59.5276 475.124 58.5037C477.483 57.4684 480.147 56.962 483.113 56.962C486.127 56.962 488.767 57.4684 491.045 58.5037C493.322 59.5276 495.111 60.9542 496.406 62.7718C497.703 64.5895 498.381 66.6718 498.416 69.0301H491.01Z" fill="black"/>
</g>
<defs>
<clipPath id="clip0_1_42">
<rect width="499" height="100" fill="white"/>
</clipPath>
</defs>
</svg>
