<svg width="333" height="100" viewBox="0 0 333 100" fill="none" xmlns="http://www.w3.org/2000/svg">
<path fill-rule="evenodd" clip-rule="evenodd" d="M0.775829 68.6394C-0.244097 67.0347 -0.259505 64.9908 0.736108 63.3706L38.2228 2.37723C40.3079 -1.0152 45.3425 -0.718578 47.0127 2.89506L81.2586 76.9942C82.5291 79.7436 81.0665 82.9784 78.1591 83.8485L24.8871 99.7896C22.7437 100.431 20.4343 99.5715 19.2362 97.6862L0.775829 68.6394ZM42.548 20.2112C42.9092 18.4169 45.3739 18.1582 46.1019 19.8381L69.7242 74.3604C70.1687 75.387 69.6154 76.5708 68.5411 76.8905L31.7343 87.85C30.3813 88.2528 29.0854 87.0737 29.3634 85.6928L42.548 20.2112ZM179.471 76.5014H189.936V38.2393H179.471V76.5014ZM179.025 28.3491C179.025 24.9509 180.925 23.2506 184.722 23.2506C188.518 23.2506 190.417 24.9509 190.417 28.3491C190.417 29.9696 189.942 31.23 188.994 32.1316C188.044 33.0331 186.62 33.4826 184.722 33.4826C180.925 33.4826 179.025 31.7714 179.025 28.3491ZM322.604 58.7748L318.555 58.9114C315.513 59.0033 313.248 59.5518 311.762 60.5548C310.274 61.5592 309.532 63.0868 309.532 65.141C309.532 68.0835 311.224 69.5556 314.609 69.5556C317.033 69.5556 318.973 68.8605 320.424 67.4674C321.877 66.0764 322.604 64.2285 322.604 61.9228V58.7748ZM325.692 76.5029L323.668 71.3006H323.393C321.631 73.5143 319.818 75.0492 317.954 75.9049C316.091 76.7602 313.66 77.1869 310.664 77.1869C306.98 77.1869 304.082 76.1378 301.965 74.0389C299.85 71.941 298.793 68.9513 298.793 65.072C298.793 61.0118 300.216 58.0173 303.063 56.0885C305.913 54.1608 310.206 53.094 315.948 52.8884L322.604 52.6832V51.0058C322.604 47.1279 320.613 45.1881 316.633 45.1881C313.568 45.1881 309.965 46.1113 305.825 47.9603L302.361 40.9101C306.775 38.607 311.671 37.453 317.045 37.453C322.192 37.453 326.138 38.5719 328.883 40.8074C331.627 43.0433 333 46.4439 333 51.0058V76.5029H325.692ZM268.236 76.5029H257.771V54.1546C257.771 51.3945 257.307 49.3247 256.383 47.9434C255.455 46.5631 253.997 45.8721 252.007 45.8721C249.331 45.8721 247.387 46.8544 246.174 48.8156C244.961 50.7784 244.356 54.0073 244.356 58.5016V76.5029H233.89V38.2404H241.885L243.292 43.1349H243.876C244.904 41.3789 246.393 40.0038 248.336 39.0115C250.28 38.0182 252.511 37.5217 255.027 37.5217C260.768 37.5217 264.656 39.3932 266.693 43.1349H267.618C268.648 41.3549 270.164 39.9746 272.166 38.9935C274.167 38.0123 276.425 37.5217 278.941 37.5217C283.287 37.5217 286.577 38.6347 288.806 40.8591C291.036 43.0839 292.151 46.6491 292.151 51.5528V76.5029H281.651V54.1546C281.651 51.3945 281.188 49.3247 280.263 47.9434C279.335 46.5631 277.878 45.8721 275.887 45.8721C273.326 45.8721 271.411 46.7857 270.14 48.6104C268.871 50.4362 268.236 53.3329 268.236 57.3026V76.5029ZM222.678 74.1072C225.413 72.054 226.779 69.0654 226.779 65.1403C226.779 63.2481 226.449 61.6153 225.785 60.2462C225.121 58.877 224.091 57.6685 222.697 56.6182C221.302 55.5695 219.106 54.4407 216.108 53.231C212.746 51.8847 210.568 50.8685 209.572 50.1844C208.579 49.5004 208.079 48.6909 208.079 47.7544C208.079 46.0891 209.624 45.2564 212.712 45.2564C214.45 45.2564 216.154 45.5199 217.824 46.043C219.493 46.5687 221.29 47.2405 223.211 48.0626L226.367 40.5339C221.999 38.5265 217.504 37.5224 212.883 37.5224C208.033 37.5224 204.289 38.4516 201.647 40.3113C199.004 42.1711 197.683 44.8008 197.683 48.1992C197.683 50.1844 197.998 51.857 198.628 53.214C199.256 54.5713 200.263 55.7747 201.647 56.8239C203.03 57.8741 205.198 59.0147 208.148 60.2462C210.207 61.1137 211.855 61.8726 213.089 62.5227C214.325 63.1731 215.194 63.7556 215.698 64.268C216.2 64.7815 216.452 65.4485 216.452 66.2702C216.452 68.46 214.553 69.5549 210.756 69.5549C208.903 69.5549 206.759 69.2467 204.324 68.6317C201.886 68.0152 199.697 67.2514 197.752 66.3378V74.9629C199.468 75.6926 201.31 76.246 203.277 76.6233C205.244 76.999 207.621 77.1873 210.413 77.1873C215.856 77.1873 219.945 76.1604 222.678 74.1072ZM173.919 37.8296C172.982 37.6243 171.804 37.5217 170.385 37.5217C168.006 37.5217 165.805 38.1777 163.781 39.49C161.756 40.8026 160.149 42.5306 158.959 44.6742H158.446L156.901 38.2404H148.975V76.5029H159.44V57.0295C159.44 53.9493 160.372 51.5528 162.235 49.8419C164.101 48.1305 166.702 47.2748 170.042 47.2748C171.255 47.2748 172.284 47.3896 173.131 47.617L173.919 37.8296ZM118.174 50.0128H121.673C124.945 50.0128 127.391 49.3686 129.015 48.0792C130.64 46.7909 131.452 44.9131 131.452 42.449C131.452 39.9632 130.771 38.1263 129.41 36.9395C128.048 35.7527 125.916 35.1594 123.011 35.1594H118.174V50.0128ZM142.191 42.0732C142.191 47.4583 140.504 51.5765 137.129 54.4274C133.756 57.2805 128.958 58.7054 122.737 58.7054H118.174V76.5022H107.537V26.4672H123.56C129.645 26.4672 134.271 27.7735 137.439 30.3862C140.608 32.9989 142.191 36.8952 142.191 42.0732Z" fill="white"/>
</svg>
