<svg width="317" height="100" viewBox="0 0 317 100" fill="none" xmlns="http://www.w3.org/2000/svg">
<g clip-path="url(#clip0_2_141)">
<path d="M183.118 83.3587H193.745C192.973 79.3229 192.577 75.4837 192.577 70.8575V51.5638C192.577 38.5703 185.15 32.172 171.824 32.172C159.753 32.172 151.544 38.4718 150.482 49.2012H162.36C162.747 44.575 166.03 41.5234 171.437 41.5234C177.039 41.5234 180.708 44.4762 180.708 50.5796V52.9421L166.03 54.6154C156.083 55.7967 148.358 59.9308 148.358 69.9712C148.358 79.0275 155.31 84.4412 164.871 84.4412C172.693 84.4412 179.291 81.1929 182.025 75.4837C182.145 78.9042 183.118 83.3587 183.118 83.3587ZM168.251 75.6808C163.326 75.6808 160.622 73.2196 160.622 69.2825C160.622 64.0654 164.581 62.8842 169.796 62.195L180.708 60.9154V63.9667C180.708 71.8417 174.624 75.6808 168.251 75.6808ZM234.658 83.3587H246.826V12.5H234.465V41.5234C232.148 36.5031 226.547 32.172 218.918 32.172C205.657 32.172 196.452 42.9012 196.452 58.3558C196.452 73.9087 205.657 84.54 218.918 84.54C226.354 84.54 232.244 80.4054 234.658 75.3854V83.3587ZM234.755 59.2417C234.755 68.9871 230.216 75.2871 222.394 75.2871C214.379 75.2871 209.327 68.6917 209.327 58.3558C209.327 48.1187 214.379 41.4249 222.394 41.4249C230.216 41.4249 234.755 47.725 234.755 57.47V59.2417ZM254.045 24.8877H267.178V12.5832H254.045V24.8877ZM254.431 83.3587H266.792V33.3532H254.431V83.3587ZM282.229 83.3587L294.493 66.2308L306.661 83.3587H320.857L301.832 57.1746L319.312 33.3532H306.081L295.169 48.8075L284.354 33.3532H270.158L287.83 57.7654L268.999 83.3587H282.229Z" fill="white"/>
<path fill-rule="evenodd" clip-rule="evenodd" d="M103.914 83.3334V58.4034H120.12L135.356 83.3334H148.909L132.178 56.5359C139.749 54.1084 146.385 47.9459 146.385 37.5817C146.385 23.9496 136.808 16.6667 120.782 16.6667H91.7632V83.3334H103.914ZM103.914 26.4706V48.6929H120.214C129.467 48.6929 134.141 44.8646 134.141 37.5817C134.141 30.2988 129.05 26.4706 119.38 26.4706H103.914Z" fill="white"/>
<path d="M29.1974 95.8333C13.0721 95.8333 0 81.8425 0 64.5833C0 47.3241 13.0721 33.3333 29.1974 33.3333V95.8333Z" fill="white"/>
<path d="M29.1974 0H0V29.1667H29.1974V0Z" fill="white"/>
<path d="M47.9671 29.1667C56.0298 29.1667 62.5658 22.6375 62.5658 14.5833C62.5658 6.52917 56.0298 0 47.9671 0C39.9046 0 33.3684 6.52917 33.3684 14.5833C33.3684 22.6375 39.9046 29.1667 47.9671 29.1667Z" fill="white"/>
</g>
<defs>
<clipPath id="clip0_2_141">
<rect width="317" height="100" fill="white"/>
</clipPath>
</defs>
</svg>
