<svg width="111" height="100" viewBox="0 0 111 100" fill="none" xmlns="http://www.w3.org/2000/svg">
<g clip-path="url(#clip0_2_164)">
<path d="M55.6951 39.2578C49.8233 39.2578 45.0633 44.0235 45.0633 49.9023C45.0633 55.7812 49.8233 60.5469 55.6951 60.5469C61.5669 60.5469 66.3269 55.7812 66.3269 49.9023C66.3269 44.0235 61.5669 39.2578 55.6951 39.2578Z" fill="#087EA4"/>
<path d="M110.992 49.9989C110.992 41.6421 103.263 34.3128 90.9559 29.4893C91.1204 28.403 91.2692 27.3285 91.3749 26.2736C92.5888 14.2659 89.699 5.59934 83.2422 1.86604C76.0179 -2.31039 65.8137 0.720957 55.4961 8.98754C45.1784 0.720957 34.9743 -2.31039 27.75 1.86604C21.2931 5.59934 18.4034 14.2659 19.6173 26.2736C19.723 27.3285 19.8679 28.407 20.0362 29.4971C19.0103 29.8893 18.004 30.305 17.0369 30.7403C6.04963 35.6853 0 42.5323 0 49.9989C0 58.3557 7.72944 65.685 20.0362 70.5085C19.8679 71.5948 19.723 72.6693 19.6173 73.7242C18.4034 85.7319 21.2931 94.3985 27.75 98.1318C29.9699 99.3921 32.4854 100.036 35.037 99.9984C41.1532 99.9984 48.2953 96.7749 55.4961 91.0103C62.693 96.7749 69.839 99.9984 75.963 99.9984C78.5145 100.036 81.0298 99.3916 83.25 98.1318C89.7069 94.3985 92.5966 85.7319 91.3827 73.7242C91.277 72.6693 91.1282 71.5948 90.9638 70.5085C103.271 65.6929 111 58.3518 111 49.9989M75.916 5.29346C77.5566 5.25383 79.1783 5.65173 80.6148 6.44639C85.0982 9.03852 87.1108 16.0698 86.1319 25.7364C86.0653 26.3952 85.987 27.0619 85.893 27.7325C80.7758 26.1891 75.5357 25.0883 70.2306 24.4423C67.0145 20.1609 63.4383 16.1634 59.5409 12.4934C65.661 7.75618 71.4052 5.29346 75.9121 5.29346M73.8094 60.587C71.8291 64.0294 69.6726 67.3672 67.3487 70.5869C63.4095 70.9922 59.4521 71.1938 55.4922 71.1909C51.5336 71.1936 47.5775 70.9921 43.6396 70.5869C41.3218 67.3671 39.1719 64.0293 37.1984 60.587C35.2181 57.1542 33.4184 53.62 31.8066 49.9989C33.4184 46.3778 35.2181 42.8436 37.1984 39.4108C39.1688 35.9823 41.3121 32.6565 43.62 29.4462C47.5651 29.0309 51.5293 28.8241 55.4961 28.8265C59.4547 28.8242 63.4108 29.0257 67.3487 29.4305C69.6645 32.6457 71.8157 35.9768 73.7938 39.4108C75.7725 42.8445 77.5722 46.3786 79.1856 49.9989C77.5722 53.6192 75.7725 57.1533 73.7938 60.587M81.8795 56.6655C83.1223 60.0593 84.1425 63.5307 84.9337 67.0576C81.5001 68.1296 77.9998 68.9746 74.4555 69.5869C75.8025 67.553 77.1077 65.4367 78.3711 63.238C79.6202 61.0655 80.791 58.8733 81.8952 56.6812M48.0603 76.2457C50.4958 76.3947 52.9823 76.481 55.5 76.481C58.0177 76.481 60.5198 76.3947 62.9593 76.2457C60.6463 79.0202 58.1546 81.6402 55.5 84.0888C52.8511 81.6405 50.3659 79.0205 48.0603 76.2457ZM36.5406 69.5791C32.9951 68.9695 29.4936 68.1271 26.0585 67.0576C26.8465 63.5363 27.8628 60.0701 29.1009 56.6812C30.1894 58.8733 31.3563 61.0655 32.6249 63.238C33.8936 65.4105 35.2053 67.5517 36.5406 69.5869M29.1009 43.3127C27.8672 39.9363 26.8536 36.4833 26.0663 32.9755C29.4929 31.9048 32.9851 31.0572 36.521 30.4383C35.1818 32.4657 33.8701 34.5677 32.6054 36.7598C31.3406 38.9519 30.1855 41.1166 29.0813 43.3127M62.9358 23.7482C60.5002 23.5992 58.0138 23.5129 55.4765 23.5129C52.9601 23.5129 50.4802 23.5913 48.0368 23.7482C50.3424 20.9733 52.8277 18.3533 55.4765 15.9051C58.1321 18.3527 60.6239 20.9727 62.9358 23.7482ZM78.3633 36.7598C77.0946 34.5585 75.7829 32.4409 74.4281 30.4069C77.9817 31.0193 81.4912 31.8656 84.9337 32.9402C84.1438 36.4611 83.1276 39.9271 81.8913 43.3166C80.8027 41.1245 79.632 38.9323 78.3672 36.7637M24.8759 25.7403C23.8853 16.0777 25.9097 9.04244 30.3891 6.45031C31.8261 5.65688 33.4474 5.25907 35.0879 5.29738C39.5948 5.29738 45.339 7.7601 51.4591 12.4973C47.5591 16.1699 43.9802 20.1701 40.7616 24.4541C35.4579 25.1031 30.2184 26.1998 25.0991 27.7325C25.0091 27.0619 24.9268 26.3991 24.8642 25.7403M19.2061 35.5677C19.8091 35.3062 20.4239 35.0448 21.0504 34.7834C22.282 39.9874 23.9522 45.0775 26.0428 49.9989C23.9482 54.9299 22.2767 60.0307 21.0465 65.2458C11.0695 61.1478 5.28609 55.4694 5.28609 49.9989C5.28609 44.8146 10.3764 39.5559 19.2061 35.5677ZM30.3891 93.5475C25.9097 90.9554 23.8853 83.9201 24.8759 74.2575C24.9386 73.5987 25.0208 72.9359 25.1109 72.2614C30.2282 73.8044 35.4682 74.9051 40.7734 75.5516C43.9904 79.8345 47.5666 83.8346 51.463 87.5083C42.9309 94.1083 35.1349 96.2847 30.4009 93.5475M86.128 74.2575C87.1069 83.9241 85.0943 90.9554 80.6109 93.5475C75.8808 96.2926 68.0809 94.1083 59.5527 87.5083C63.4478 83.8345 67.0227 79.8344 70.2384 75.5516C75.5436 74.9056 80.7836 73.8048 85.9009 72.2614C85.9948 72.9359 86.0732 73.5987 86.1397 74.2575M89.9692 65.238C88.7355 60.0259 87.0627 54.9279 84.969 49.9989C87.0618 45.0672 88.7332 39.9666 89.9653 34.752C99.9227 38.85 105.722 44.5284 105.722 49.9989C105.722 55.4694 99.9384 61.1478 89.9614 65.2458" fill="#087EA4"/>
</g>
<defs>
<clipPath id="clip0_2_164">
<rect width="111" height="100" fill="white"/>
</clipPath>
</defs>
</svg>
