<svg width="100" height="100" viewBox="0 0 100 100" fill="none" xmlns="http://www.w3.org/2000/svg">
<g clip-path="url(#clip0_2_92)">
<path d="M0 50V100H100V-1.49012e-06H0V50ZM56.725 23.275C63.075 24.3 68.1 27.975 70.475 33.325C72.65 38.225 72.225 44.75 69.45 49.45C68.325 51.35 65.425 54.25 63.7 55.25C62.9 55.675 62.25 56.175 62.25 56.3C62.25 56.45 64.025 59.625 66.175 63.35C68.325 67.075 70.8 71.325 71.65 72.775C72.475 74.25 73.35 75.7 73.6 76.025C73.825 76.35 74 76.7 74 76.8C74 76.925 70.65 76.975 66.575 76.95L59.15 76.875L58.375 75.5C57.925 74.75 55.525 70.5 53.025 66.05L48.45 58H41.75V77H29.25V23H42.2C50 23 55.775 23.1 56.725 23.275Z" fill="black"/>
<path d="M41.75 40.975V48H47.575C54.3 48 55.35 47.8 56.875 46.325C58.375 44.875 58.875 43.525 58.875 40.875C58.875 38.875 58.8 38.5 58.175 37.45C57.475 36.25 56.575 35.425 55 34.6C54.225 34.175 53.4 34.125 47.95 34.05L41.75 33.95V40.975Z" fill="black"/>
</g>
<defs>
<clipPath id="clip0_2_92">
<rect width="100" height="100" fill="white"/>
</clipPath>
</defs>
</svg>
