<svg width="450" height="90" viewBox="0 0 450 90" fill="none" xmlns="http://www.w3.org/2000/svg">
<g clip-path="url(#clip0_4_23)">
<path fill-rule="evenodd" clip-rule="evenodd" d="M119.88 71.2413C116.04 71.2413 112.344 70.7256 108.792 69.6933C105.24 68.6614 102.288 67.2336 99.936 65.4093L103.536 57.4173C108.432 60.8256 113.928 62.5293 120.024 62.5293C123.192 62.5293 125.628 62.0136 127.332 60.9813C129.036 59.9494 129.888 58.5216 129.888 56.6973C129.888 55.0656 129.108 53.7934 127.548 52.8813C125.988 51.9696 123.216 51.0813 119.232 50.2173C114.768 49.3056 111.204 48.2013 108.54 46.9053C105.876 45.6093 103.932 44.0134 102.708 42.1174C101.484 40.2214 100.872 37.8814 100.872 35.0974C100.872 32.0254 101.724 29.2894 103.428 26.8894C105.132 24.4894 107.52 22.6054 110.592 21.2374C113.664 19.8694 117.216 19.1854 121.248 19.1854C124.848 19.1854 128.316 19.7134 131.652 20.7694C134.988 21.8254 137.64 23.2414 139.608 25.0174L136.008 33.0094C131.352 29.6014 126.456 27.8974 121.32 27.8974C118.392 27.8974 116.088 28.4614 114.408 29.5894C112.728 30.7174 111.888 32.2654 111.888 34.2334C111.888 35.3854 112.212 36.3334 112.86 37.0774C113.508 37.8214 114.588 38.4814 116.1 39.0574C117.612 39.6334 119.76 40.2334 122.544 40.8574C129.072 42.2974 133.764 44.1454 136.62 46.4013C139.476 48.6576 140.904 51.7774 140.904 55.7613C140.904 60.5614 139.056 64.3414 135.36 67.1013C131.664 69.8616 126.504 71.2413 119.88 71.2413ZM166.969 63.1768C168.073 63.1768 169.225 63.1048 170.425 62.9608L169.849 70.8808C168.457 71.073 167.065 71.1688 165.673 71.1688C160.297 71.1688 156.373 69.993 153.901 67.6408C151.429 65.2891 150.193 61.713 150.193 56.9128V43.377H143.497V35.241H150.193V24.873H161.065V35.241H169.921V43.377H161.065V56.8408C161.065 61.065 163.033 63.1768 166.969 63.1768ZM192.24 71.1693C188.496 71.1693 185.208 70.4133 182.376 68.9013C179.544 67.3893 177.36 65.2536 175.824 62.4933C174.288 59.7334 173.52 56.4813 173.52 52.7373C173.52 48.9933 174.288 45.7416 175.824 42.9814C177.36 40.2214 179.544 38.0974 182.376 36.6094C185.208 35.1214 188.496 34.3774 192.24 34.3774C195.984 34.3774 199.272 35.1214 202.104 36.6094C204.936 38.0974 207.12 40.2214 208.656 42.9814C210.192 45.7416 210.96 48.9933 210.96 52.7373C210.96 56.4813 210.192 59.7334 208.656 62.4933C207.12 65.2536 204.936 67.3893 202.104 68.9013C199.272 70.4133 195.984 71.1693 192.24 71.1693ZM192.24 62.8893C197.52 62.8893 200.16 59.5053 200.16 52.7373C200.16 49.3294 199.476 46.7856 198.108 45.1053C196.74 43.4254 194.784 42.5854 192.24 42.5854C186.96 42.5854 184.32 45.9693 184.32 52.7373C184.32 59.5053 186.96 62.8893 192.24 62.8893ZM241.056 43.3059L234.936 43.9539C231.912 44.2419 229.777 45.094 228.528 46.5097C227.281 47.9259 226.656 49.81 226.656 52.1617V70.5937H215.784V35.2419H226.224V41.2179C228.001 37.1379 231.673 34.9059 237.24 34.5219L240.408 34.3059L241.056 43.3059ZM272.646 35.3134H283.302L261.99 83.5533H250.974L257.742 68.6493L243.198 35.3134H254.502L263.43 57.7773L272.646 35.3134ZM308.502 34.3776C311.574 34.3776 314.285 35.1216 316.638 36.6096C318.99 38.0976 320.826 40.2216 322.146 42.9816C323.465 45.7416 324.126 48.9456 324.126 52.5937C324.126 56.2414 323.465 59.4697 322.146 62.2777C320.826 65.0857 318.978 67.2696 316.602 68.8297C314.226 70.3894 311.526 71.1697 308.502 71.1697C306.054 71.1697 303.845 70.6536 301.878 69.6217C299.91 68.5894 298.398 67.1616 297.342 65.3377V70.5937H286.614V19.8336H297.486V39.9936C298.542 38.2176 300.042 36.8376 301.986 35.8536C303.93 34.8696 306.102 34.3776 308.502 34.3776ZM305.335 62.8897C307.879 62.8897 309.847 61.9897 311.239 60.1897C312.631 58.3897 313.327 55.8576 313.327 52.5937C313.327 49.3776 312.631 46.9179 311.239 45.2137C309.847 43.5097 307.879 42.6577 305.335 42.6577C302.791 42.6577 300.823 43.5337 299.431 45.2857C298.039 47.0376 297.343 49.5216 297.343 52.7377C297.343 56.0016 298.039 58.5099 299.431 60.2617C300.823 62.0136 302.791 62.8897 305.335 62.8897ZM347.743 71.1693C343.999 71.1693 340.711 70.4133 337.879 68.9013C335.047 67.3893 332.863 65.2531 331.327 62.4933C329.791 59.7334 329.023 56.4813 329.023 52.7373C329.023 48.9933 329.791 45.7411 331.327 42.9813C332.863 40.2213 335.047 38.0973 337.879 36.6093C340.711 35.1213 343.999 34.3773 347.743 34.3773C351.487 34.3773 354.775 35.1213 357.607 36.6093C360.439 38.0973 362.623 40.2213 364.159 42.9813C365.695 45.7411 366.463 48.9933 366.463 52.7373C366.463 56.4813 365.695 59.7334 364.159 62.4933C362.623 65.2531 360.439 67.3893 357.607 68.9013C354.775 70.4133 351.487 71.1693 347.743 71.1693ZM347.742 62.8893C353.023 62.8893 355.662 59.5053 355.662 52.7373C355.662 49.329 354.978 46.7851 353.61 45.1053C352.242 43.4252 350.286 42.5852 347.742 42.5852C342.463 42.5852 339.822 45.9693 339.822 52.7373C339.822 59.5053 342.463 62.8893 347.742 62.8893ZM388.278 71.1693C384.534 71.1693 381.246 70.4133 378.414 68.9013C375.582 67.3893 373.398 65.2536 371.862 62.4933C370.326 59.7334 369.558 56.4813 369.558 52.7373C369.558 48.9933 370.326 45.7416 371.862 42.9814C373.398 40.2214 375.582 38.0974 378.414 36.6094C381.246 35.1214 384.534 34.3774 388.278 34.3774C392.022 34.3774 395.31 35.1214 398.142 36.6094C400.974 38.0974 403.158 40.2214 404.694 42.9814C406.23 45.7416 406.998 48.9933 406.998 52.7373C406.998 56.4813 406.23 59.7334 404.694 62.4933C403.158 65.2536 400.974 67.3893 398.142 68.9013C395.31 70.4133 392.022 71.1693 388.278 71.1693ZM388.278 62.8893C393.558 62.8893 396.198 59.5053 396.198 52.7373C396.198 49.3294 395.514 46.7856 394.146 45.1053C392.778 43.4254 390.822 42.5854 388.278 42.5854C382.998 42.5854 380.358 45.9693 380.358 52.7373C380.358 59.5053 382.998 62.8893 388.278 62.8893ZM450 70.5937H436.681L423.145 54.8257V70.5937H412.273V19.8336H423.145V50.3617L436.177 35.3136H449.137L434.305 52.1617L450 70.5937Z" fill="black"/>
<path d="M2.79126 82.9319L0.00324043 8.644C-0.0888368 6.19056 1.79237 4.11131 4.24276 3.95816L67.4298 0.00896556C69.9241 -0.146922 72.0724 1.74866 72.2281 4.24286C72.234 4.33683 72.2372 4.43096 72.2372 4.52511V85.4753C72.2372 87.9741 70.2113 90 67.712 90C67.6444 90 67.577 89.9986 67.509 89.9955L7.11 87.2829C4.75772 87.1772 2.87956 85.2849 2.79126 82.9319Z" fill="#FF4785"/>
<path fill-rule="evenodd" clip-rule="evenodd" d="M62.4618 0.319702L53.7656 0.863213L53.3412 11.0627C53.3349 11.2194 53.3831 11.3736 53.478 11.4987C53.7035 11.7957 54.1269 11.8538 54.4239 11.6285L58.3857 8.62312L61.7319 11.2592C61.8575 11.358 62.0136 11.4091 62.1734 11.4036C62.546 11.3906 62.8376 11.078 62.8245 10.7054L62.4618 0.319702ZM55.6934 34.4745C54.1013 35.7111 42.243 36.5548 42.243 34.7944C42.4936 28.0767 39.4861 27.7822 37.8153 27.7822C36.228 27.7822 33.5547 28.2621 33.5547 31.8608C33.5547 35.528 37.4614 37.5984 42.047 40.0284C48.5613 43.4804 56.4449 47.6586 56.4449 58.1715C56.4449 68.2479 48.258 73.8139 37.8153 73.8139C27.0384 73.8139 17.6206 69.4539 18.6842 54.3375C19.102 52.5627 32.8028 52.9843 32.8028 54.3375C32.6357 60.5754 34.0559 62.4101 37.6482 62.4101C40.4051 62.4101 41.6582 60.8904 41.6582 58.3312C41.6582 54.4585 37.5877 52.173 32.905 49.5441C26.5646 45.9841 19.102 41.7945 19.102 32.1807C19.102 22.5841 25.7018 16.1863 37.4811 16.1863C49.2606 16.1863 55.6934 22.4861 55.6934 34.4745Z" fill="white"/>
</g>
<defs>
<clipPath id="clip0_4_23">
<rect width="450" height="90" fill="white"/>
</clipPath>
</defs>
</svg>
