<svg width="167" height="100" viewBox="0 0 167 100" fill="none" xmlns="http://www.w3.org/2000/svg">
<path fill-rule="evenodd" clip-rule="evenodd" d="M83.3333 0C61.1111 0 47.2222 11.1111 41.6667 33.3333C50 22.2222 59.7222 18.0556 70.8333 20.8333C77.1728 22.4167 81.7037 27.0185 86.7191 32.108C94.8889 40.4012 104.346 50 125 50C147.222 50 161.111 38.8889 166.667 16.6667C158.333 27.7778 148.611 31.9444 137.5 29.1667C131.16 27.5833 126.63 22.9815 121.614 17.892C113.444 9.59876 103.988 0 83.3333 0ZM41.6667 50C19.4444 50 5.55556 61.1111 0 83.3333C8.33333 72.2222 18.0556 68.0556 29.1667 70.8333C35.5062 72.4198 40.037 77.0185 45.0525 82.108C53.2222 90.4012 62.679 100 83.3333 100C105.556 100 119.444 88.8889 125 66.6667C116.667 77.7778 106.944 81.9444 95.8333 79.1667C89.4938 77.5833 84.963 72.9815 79.9475 67.892C71.7778 59.5988 62.321 50 41.6667 50Z" fill="#38BDF8"/>
</svg>
