<svg width="104" height="100" viewBox="0 0 104 100" fill="none" xmlns="http://www.w3.org/2000/svg">
<path fill-rule="evenodd" clip-rule="evenodd" d="M3.79823 0H97.4881C99.5858 0 101.286 1.67893 101.286 3.75V96.25C101.286 98.3211 99.5858 100 97.4881 100H3.79823C1.70053 100 0 98.3211 0 96.25V3.75C0 1.67893 1.70053 0 3.79823 0ZM56.3044 53.2015V45H20.2572V53.2015H33.1267V89.7192H43.3719V53.2015H56.3044ZM60.389 88.755C62.041 89.5865 63.9951 90.2104 66.2507 90.6261C68.5067 91.0419 70.8841 91.25 73.3836 91.25C75.8195 91.25 78.1333 91.0212 80.3257 90.5638C82.5178 90.1065 84.4399 89.3527 86.092 88.3027C87.744 87.2527 89.0521 85.8808 90.0159 84.1861C90.9796 82.4915 91.4615 80.3969 91.4615 77.9019C91.4615 76.0931 91.186 74.5081 90.6352 73.1462C90.0848 71.7842 89.2905 70.5731 88.2525 69.5127C87.2148 68.4523 85.9703 67.5012 84.5193 66.6592C83.0683 65.8173 81.4324 65.0219 79.6108 64.2735C78.2762 63.7327 77.0794 63.2077 76.0205 62.6985C74.9613 62.1892 74.0611 61.6692 73.32 61.1392C72.5785 60.6088 72.0069 60.0477 71.6044 59.455C71.2019 58.8627 71.0008 58.1919 71.0008 57.4435C71.0008 56.7573 71.1807 56.1388 71.5408 55.5881C71.901 55.0369 72.409 54.5638 73.0658 54.1688C73.7225 53.7738 74.5272 53.4673 75.4805 53.2488C76.4335 53.0308 77.4927 52.9215 78.6575 52.9215C79.5049 52.9215 80.3997 52.9838 81.3423 53.1085C82.2848 53.2335 83.2327 53.4258 84.1857 53.6854C85.139 53.9454 86.0658 54.2727 86.966 54.6681C87.8661 55.0631 88.6974 55.5204 89.46 56.04V46.7154C87.9135 46.1331 86.2245 45.7015 84.3922 45.4212C82.5602 45.1404 80.4579 45 78.0855 45C75.6712 45 73.3836 45.2546 71.2231 45.7642C69.0626 46.2735 67.1617 47.0688 65.52 48.15C63.8783 49.2312 62.581 50.6085 61.6281 52.2819C60.6748 53.9558 60.1983 55.9569 60.1983 58.2854C60.1983 61.2588 61.0719 63.7954 62.8195 65.895C64.5671 67.995 67.2198 69.7727 70.7782 71.2281C72.1764 71.7896 73.4787 72.3404 74.6863 72.8812C75.8934 73.4215 76.9365 73.9831 77.8155 74.565C78.6945 75.1473 79.3882 75.7812 79.8967 76.4673C80.4051 77.1535 80.6593 77.9331 80.6593 78.8065C80.6593 79.4512 80.5002 80.0488 80.1825 80.5996C79.8647 81.1508 79.3828 81.6288 78.7369 82.0342C78.0909 82.4396 77.2863 82.7569 76.3225 82.9854C75.3588 83.2142 74.2306 83.3285 72.9387 83.3285C70.7358 83.3285 68.5541 82.9492 66.3936 82.1904C64.2335 81.4315 62.2317 80.2931 60.389 78.7754V88.755Z" fill="#3179C6"/>
</svg>
